<?xml version="1.0" encoding="utf-8"?>
<!-- Generator: Adobe Illustrator 26.0.2, SVG Export Plug-In . SVG Version: 6.00 Build 0)  -->
<svg version="1.1" id="Capa_1" xmlns="http://www.w3.org/2000/svg" xmlns:xlink="http://www.w3.org/1999/xlink" x="0px" y="0px"
	 viewBox="0 0 283.5 283.5" style="enable-background:new 0 0 283.5 283.5;" xml:space="preserve">
<style type="text/css">
	.st0{fill:#3BD4AE;}
</style>
<g>
	<path class="st0" d="M141.7,0C63.6,0,0,63.6,0,141.7c0,78.2,63.6,141.7,141.7,141.7s141.7-63.6,141.7-141.7
		C283.5,63.6,219.9,0,141.7,0z M141.7,272.1c-71.9,0-130.3-58.5-130.3-130.3c0-71.9,58.5-130.3,130.3-130.3s130.3,58.5,130.3,130.3
		C272.1,213.6,213.6,272.1,141.7,272.1z"/>
	<path class="st0" d="M66.3,149.3c4.2,0,7.6-3.4,7.6-7.6c0-4.2-3.4-7.6-7.6-7.6c-4.2,0-7.6,3.4-7.6,7.6
		C58.8,145.9,62.2,149.3,66.3,149.3z"/>
	<path class="st0" d="M217.1,134.2c-4.2,0-7.6,3.4-7.6,7.6c0,4.2,3.4,7.6,7.6,7.6c4.2,0,7.6-3.4,7.6-7.6
		C224.7,137.5,221.3,134.2,217.1,134.2z"/>
	<path class="st0" d="M171.9,141.7l52.2-81.3c0.3-0.6,0.6-1.3,0.6-2c0-2.1-1.7-3.8-3.8-3.8c-1.4,0-2.6,0.7-3.3,1.8l-50.4,78.4
		c-0.1-0.1-0.2-0.1-0.3-0.2c0,0-0.1-0.1-0.1-0.1c-0.2-0.1-0.4-0.2-0.7-0.3c-0.1,0-0.1,0-0.2-0.1c-0.3-0.1-0.6-0.1-0.9-0.1
		c0,0,0,0,0,0s0,0,0,0c-0.3,0-0.6,0-0.9,0.1c-0.1,0-0.1,0-0.2,0.1c-0.2,0.1-0.5,0.2-0.7,0.3c-0.1,0-0.1,0.1-0.1,0.1
		c-0.1,0.1-0.2,0.1-0.3,0.2l-16.4-25.5l31.4-48.9c0.3-0.6,0.6-1.3,0.6-2c0-2.1-1.7-3.8-3.8-3.8c-1.4,0-2.6,0.7-3.3,1.8l-29.5,45.8
		l-29.5-45.8c-0.7-1.1-1.9-1.8-3.3-1.8c-2.1,0-3.8,1.7-3.8,3.8c0,0.7,0.2,1.4,0.6,2l31.4,48.9l-16.4,25.5c-0.1-0.1-0.2-0.1-0.3-0.2
		c0,0-0.1-0.1-0.1-0.1c-0.2-0.1-0.4-0.2-0.7-0.3c-0.1,0-0.1,0-0.2-0.1c-0.3-0.1-0.6-0.1-0.9-0.1c0,0,0,0,0,0s0,0,0,0
		c-0.3,0-0.6,0-0.9,0.1c-0.1,0-0.1,0-0.2,0.1c-0.2,0.1-0.5,0.2-0.7,0.3c-0.1,0-0.1,0.1-0.1,0.1c-0.1,0.1-0.2,0.1-0.3,0.2L65.9,56.5
		c-0.7-1.1-1.9-1.8-3.3-1.8c-2.1,0-3.8,1.7-3.8,3.8c0,0.7,0.2,1.4,0.6,2l52.2,81.3L59.3,223c-0.3,0.6-0.6,1.3-0.6,2
		c0,2.1,1.7,3.8,3.8,3.8c1.4,0,2.6-0.7,3.3-1.8l50.4-78.4c0.1,0.1,0.2,0.1,0.3,0.2c0,0,0.1,0.1,0.1,0.1c0.2,0.1,0.4,0.2,0.7,0.3
		c0.1,0,0.1,0,0.2,0.1c0.3,0.1,0.6,0.1,0.9,0.1c0,0,0,0,0,0s0,0,0,0c0.3,0,0.6,0,0.9-0.1c0.1,0,0.1,0,0.2-0.1
		c0.2-0.1,0.5-0.2,0.7-0.3c0.1,0,0.1-0.1,0.1-0.1c0.1-0.1,0.2-0.1,0.3-0.2l16.4,25.5L105.7,223c-0.3,0.6-0.6,1.3-0.6,2
		c0,2.1,1.7,3.8,3.8,3.8c1.4,0,2.6-0.7,3.3-1.8l29.5-45.8l29.5,45.8c0.7,1.1,1.9,1.8,3.3,1.8c2.1,0,3.8-1.7,3.8-3.8
		c0-0.7-0.2-1.4-0.6-2l-31.4-48.9l16.4-25.5c0.1,0.1,0.2,0.1,0.3,0.2c0,0,0.1,0.1,0.1,0.1c0.2,0.1,0.4,0.2,0.7,0.3
		c0.1,0,0.1,0,0.2,0.1c0.3,0.1,0.6,0.1,0.9,0.1c0,0,0,0,0,0s0,0,0,0c0.3,0,0.6,0,0.9-0.1c0.1,0,0.1,0,0.2-0.1
		c0.2-0.1,0.5-0.2,0.7-0.3c0.1,0,0.1-0.1,0.1-0.1c0.1-0.1,0.2-0.1,0.3-0.2l50.4,78.4c0.7,1.1,1.9,1.8,3.3,1.8c2.1,0,3.8-1.7,3.8-3.8
		c0-0.7-0.2-1.4-0.6-2L171.9,141.7z M141.7,167l-16.2-25.3l16.2-25.3l16.2,25.3L141.7,167z"/>
</g>
</svg>
